<svg
    version="1.1"
    xmlns="http://www.w3.org/2000/svg"
    x="0px"
    y="0px"
    viewBox="0 0 256 256"
    enable-background="new 0 0 256 256"
    xml:space="preserve">
<g><g><g>
    <path fill="#f00000" d="M122.5,10.7c-10,1.8-18,6.2-25.3,13.9C87,35.4,82.8,50.2,85.9,64.9c0.4,1.7,0.9,3.8,1.3,4.8c0.4,1,10.2,21.1,21.9,44.6l21.2,42.7l20.2-40.4c11.2-22.2,20.6-41.2,21.1-42.2c2.8-6,4-11.8,4-18.7c0-12.2-4.1-22.6-12.3-31.3C153,13.2,137.5,8,122.5,10.7z M136.3,34.7c10.8,2.9,18.2,14.1,16.4,25.1c-1.8,11.1-11,19-22.1,19c-1.9,0-4.6-0.3-5.9-0.6c-11.4-3-18.7-14.8-16.3-26.2c1.7-8.1,8.2-15.1,16.2-17.2C127.9,33.8,132.9,33.8,136.3,34.7z"/>
    <path fill="#2e6537" d="M81.1,88.5c-7,1.5-16.3,4.8-23.9,8.5c-3.9,1.9-7.2,3.7-7.3,4c-0.3,0.8-4.8,36.1-4.6,36.2c0,0.1,1.9-0.6,4.2-1.6c12.2-5,23-7.7,36.1-8.6l7.3-0.6l0.9-14.1l1-14.1l-2.7-5.5l-2.6-5.4l-2,0C86.4,87.6,83.5,88,81.1,88.5z"/>
    <path fill="#119343" d="M99,110.4c-0.2,1.5-0.4,4.8-0.6,7.2c-0.1,2.4-0.4,5.5-0.5,7l-0.3,2.5l5.6,0.6c3.1,0.3,5.7,0.5,5.9,0.4c0.1-0.1-2.1-4.8-4.8-10.3l-5-10.1L99,110.4z"/>
    <path fill="#119343" d="M155.1,120.5l-8.4,16.8l1.8,0.5c0.9,0.2,4.1,1,7,1.6c2.9,0.6,5.8,1.3,6.3,1.4c0.9,0.2,1,0,1.3-2.7c0.3-3.4,0.9-34.5,0.7-34.5C163.6,103.7,159.7,111.3,155.1,120.5z"/>
    <path fill="#1c4e1a" d="M168.6,113.7c-0.1,7.1-0.4,16.3-0.6,20.5l-0.3,7.7l1.8,0.2c4.2,0.6,21.1,0.9,27.9,0.4c11.9-0.8,18-1.6,18-2.1c0-1-3.3-36.6-3.5-38l-0.2-1.5h-21.4H169L168.6,113.7z"/>
    <path fill="#119343" d="M56.4,138.4c-1.2,0.5-4.5,1.8-7.2,3l-4.8,2.1l-2.7,20.8c-1.4,11.4-2.5,20.9-2.4,21c0.1,0.1,1.4-0.4,2.9-1.2c12.4-6.2,29.6-11,43.3-11.9c2.4-0.2,4.5-0.4,4.5-0.6c0-0.1,0.3-4.7,0.7-10c0.4-5.4,0.7-10.8,0.7-12.1v-2.4l-4.7-1.8c-2.6-1-6.8-2.5-9.4-3.3c-4.8-1.5-17.1-4.7-18-4.6C58.9,137.5,57.7,137.9,56.4,138.4z"/>
    <path fill="#119343" d="M83.6,132.1c-5.1,0.6-11.8,1.7-11.8,2c0,0.1,2,0.9,4.5,1.6c2.4,0.7,6.9,2.2,9.9,3.3c6.2,2.3,5.7,2.6,6-3.6l0.2-3.6l-3.7,0C86.7,132,84.4,132.1,83.6,132.1z"/>
    <path fill="#119343" d="M96.1,152.5c-0.5,6-1.3,19.1-1.1,19.3c0.1,0.1,1.3,0.3,2.8,0.5l2.6,0.3l1.5-6.1c1.9-7.8,1.9-10.4,0.3-12.6c-0.7-0.9-2.3-2.2-3.5-3l-2.3-1.4L96.1,152.5z"/>
    <path fill="#5b6a22" d="M97.3,134.3c0,1.1-0.1,3.6-0.3,5.4l-0.3,3.4l2.4,1.2c4.2,2.2,7.6,5.1,8.9,7.8c1.6,3.2,1.6,6.3,0,13.3c-1.8,8.1-2.2,7.4,3.7,8.4c6.4,1.1,11.4,2.3,22,5.1c7.8,2.1,8.6,2.2,9,1.5c2.2-3.6,4-5.6,6.7-7.2c3.6-2.1,6.8-3.1,10.3-3.2l2.5,0l0.3-11.7c0.2-6.5,0.2-11.9,0-12.2c-0.1-0.2-0.7-0.5-1.3-0.5c-0.8,0-10.4-2.1-15.7-3.5c-1.2-0.3-1.3-0.2-8.3,13.7l-7,14l-9-18.1l-9-18.1l-5.5-0.7c-3.1-0.4-6.5-0.7-7.5-0.7h-2V134.3z"/>
    <path fill="#2e6537" d="M198.6,147.4c-9.2,0.6-22,0.6-28-0.1L168,147l-0.3,3.6c-0.2,2-0.3,7.2-0.3,11.7v8.1l14.5-0.3c11.5-0.3,14.8-0.2,16.5,0.3l2.1,0.6l0.6,3c1.3,6.8,2.8,9.3,6.3,10.2c1.1,0.3,2.4,0.9,3,1.4c1,1,1.1,1,5,0.1c2.6-0.6,3.9-1.1,3.9-1.5c0-1.1-3.2-34.5-3.5-36.1l-0.2-1.5l-3.6,0C209.9,146.7,204,147,198.6,147.4z"/>
    <path fill="#5b6a22" d="M79.2,177.8c-8,1.2-15.5,3-23.8,6.1c-4.8,1.8-15,6.4-16.3,7.4c-1,0.8-1.2,2.3-4.5,27.6c-1.9,14.7-3.5,26.9-3.5,27.1s3.4-1.9,7.5-4.6c8.4-5.6,15.1-9.1,23.1-12.3c6.5-2.6,15.3-5.1,20.7-5.9c2.1-0.3,3.9-0.6,4-0.6c0.1-0.1,2.9-42.2,2.9-44.2c0-1.2,0-1.2-2.9-1.2C84.9,177.2,81.6,177.5,79.2,177.8z"/>
    <path fill="#2e6537" d="M94.5,177.9c0,0.5-0.6,10.3-1.4,21.8s-1.4,21.2-1.4,21.5c0,0.3,2.4,0.6,6.8,0.8c11.4,0.5,21.2,2.6,42.1,9c15.9,4.9,19.4,5.8,19.9,5c0.2-0.3,0.4-1.9,0.4-3.4v-2.8l-2.9-0.8c-4.1-1.2-7.3-2.7-8.8-4.2c-1.5-1.5-1.7-3.6-0.6-6.7c1.4-4,1.1-4.9-2.9-8.7l-3.6-3.4l-7.8-0.1c-9.3-0.1-10.6-0.4-17.9-4.5c-11.9-6.7-16.3-12.1-16.6-20.9c-0.1-1.5-0.3-2.9-0.6-3.1c-0.2-0.2-1.4-0.4-2.6-0.4C94.9,177.1,94.5,177.2,94.5,177.9z"/>
    <path fill="#2e6537" d="M105.7,180.8c0.5,5.9,3.4,9.6,11.3,14.2c8,4.7,8.8,4.9,16,5.1l6.3,0.2v-2.7c0-1.5,0.3-4.7,0.7-7c0.4-2.4,0.6-4.3,0.6-4.4c-0.8-0.8-25.4-6.6-33.1-7.8l-2-0.3L105.7,180.8z"/>
    <path fill="#119343" d="M215.9,190.8c-3.1,0.3-3.7,0.6-3.7,1.7c0,0.6-0.4,2.7-1,4.7c-0.8,3.3-0.9,4-0.4,7.7c1,7.5-0.3,8.5-12.1,9.2c-5.5,0.4-7.9,0.7-9.4,1.3c-2.9,1.2-7.6,6.2-10.2,10.7c-1.5,2.6-2.8,4.2-3.9,4.8c-1.7,1-4.6,1.2-7.8,0.6l-2-0.3v3.4v3.4l3.4,0.6c2.4,0.5,10.9,0.6,29.6,0.8l26.2,0.2l-0.3-2.4c-0.1-1.3-1.1-11.7-2.1-23c-1-11.3-2-21.2-2.1-22.1C220,190.4,220,190.4,215.9,190.8z"/>
</g></g></g>
</svg>